<svg width="244" height="218" viewBox="0 0 244 218" fill="none" xmlns="http://www.w3.org/2000/svg">
<path d="M87.0271 24.7845C89.1064 24.815 91.2339 24.7424 93.3049 24.9357C99.9707 25.5586 109.036 27.9204 113.964 32.7349C115.432 34.169 116.873 35.7071 117.973 37.4477C121.56 43.121 125.35 54.2663 125.44 60.9429C126.384 59.653 127.396 58.4136 128.471 57.2299C136.762 47.9389 141.531 44.6229 153.533 40.5678C172.52 34.1526 191.607 42.6482 193.101 64.2547C194.217 87.372 173.086 102.399 158.264 116.679C148.425 126.157 149.091 120.648 155.331 134.237C156.61 136.597 157.32 139.703 158.461 142.048C169.365 164.445 165.745 193.393 136.086 195.326C134.044 195.254 131.451 195.244 129.472 194.722C110.588 189.738 101.822 179.352 101.081 160.078C98.5584 162.851 97.5009 163.042 94.8715 165.233C86.2516 172.266 75.1557 180.451 63.7876 181.742C50.83 183.214 38.5901 173.449 38.0163 160.327C37.1731 141.042 59.9389 128.615 72.6762 117.705C75.6639 115.146 79.6318 112.509 82.1366 109.571C80.2457 105.851 77.5431 102.526 75.4546 99.0633C68.306 87.1489 61.1826 74.3753 59.3854 60.399C58.1996 51.1768 59.6326 43.9281 65.6512 36.7884C71.3993 29.9699 78.2011 25.9695 87.0271 24.7845ZM144.252 111.272L144.545 111.483C146.139 110.429 149.433 106.897 151.052 105.406C159.377 97.7389 169.808 87.6139 174.703 77.4087C175.953 74.8021 176.829 71.907 177.4 69.0777C178.419 64.0388 178.34 57.6755 175.313 53.262C173.498 50.6169 170.116 48.9893 167.016 48.4577C165.218 48.1493 163.39 48.2223 161.581 48.4094C152.102 49.525 141.07 55.9483 133.926 62.1587C132.54 63.3635 131.281 64.7609 129.993 66.0706C129.184 66.8932 128.001 67.5911 127.312 68.475C127.004 68.8693 126.892 69.1999 126.972 69.7017C127.305 71.7918 128.835 73.9312 129.555 75.956C130.908 79.7576 131.988 83.6877 133.417 87.4553C135.066 91.8055 137.505 96.8931 139.4 101.264C140.873 104.663 143.1 107.717 144.252 111.272ZM88.9791 105.557C91.2788 102.701 93.6742 99.8519 96.2174 97.2095C104.537 87.874 113.252 77.5231 120.151 67.1376C117.706 56.5052 113.487 43.8114 103.721 37.6908C99.9317 35.3162 97.0562 35.296 92.7505 35.4276C88.1227 35.8012 84.7249 38.1615 81.7492 41.6401C76.8716 47.3422 75.7712 55.8395 76.3558 63.0371C76.743 67.8046 78.2654 72.3967 79.5204 76.9898C80.1778 79.3961 80.6417 81.8479 81.3653 84.2351C82.6333 88.4188 84.2204 92.4175 85.6632 96.5333C86.7208 99.5509 87.6592 102.643 88.9791 105.557ZM55.359 163.417C62.2701 168.491 69.5539 166.147 76.8578 163.371C82.8283 161.102 87.7831 156.411 93.2116 153.522C94.6544 151.513 98.3431 150.571 99.077 149.111C98.1796 147.561 97.0202 141.787 96.4039 139.692C93.6934 130.474 91.593 124.593 86.5283 116.322L86.3953 116.49C85.1905 117.983 83.1321 119.401 81.7157 120.834C72.3485 130.31 48.9121 148.067 55.359 163.417ZM122.274 75.0848C116.41 83.2381 110.615 91.7474 104.144 99.4231C100.503 103.741 96.2783 107.504 92.5529 111.713C93.6287 115.963 96.0997 119.838 97.9108 123.821C100.184 128.821 102.102 133.972 104.669 138.847C104.983 139.442 105.354 140.052 105.578 140.688C105.814 141.361 105.843 142.813 106.345 143.217C106.908 142.925 107.211 142.516 107.59 142.029C115.558 134.019 124.477 126.742 133.354 119.768C134.878 118.571 136.681 117.796 138.165 116.603C135.98 112.682 133.835 108.615 132.216 104.423C130.963 101.178 129.868 97.8554 128.669 94.5867C127.457 91.2818 126.107 87.9817 125.114 84.6049C124.662 83.0672 122.935 75.9447 122.274 75.0848ZM142.035 129.328C132.7 135.486 124.004 143.098 115.008 149.776C112.663 151.517 110.554 153.473 108.157 155.214C112.142 163.59 114.569 169.424 122.643 175.127C126.506 177.76 132.494 180.809 137.293 179.82C153.391 176.501 149.517 151.478 146.572 139.989C145.587 136.147 143.843 132.069 143.116 128.288L142.035 129.328Z" fill="#F02430"/>
<path d="M142.626 125.231C144.176 126.494 145.835 125.407 147.754 125.087C148.727 128.692 150.107 132.036 151.357 135.538C151.73 136.581 152.679 138.995 152.868 139.989L152.491 140.214L152.523 140.389C153.052 143.218 157.94 157.302 157.107 158.72C155.594 158.494 156.344 156.984 155.867 155.646C154.47 151.722 153.32 148.279 151.487 144.488C150.938 146.443 151.632 147.408 151.506 148.621L151.253 148.574L151.149 150.404C150.666 148.501 150.788 144.582 150.26 142.489C149.222 138.367 147.051 134.256 145.603 130.219C145.3 129.372 144.801 127.207 144.454 126.834C143.926 126.936 143.427 127.612 143.019 128.049L143.116 128.288L142.035 129.328C141.738 128.675 141.836 128.575 141.299 128.334C140.013 129.09 133.549 133.625 132.746 133.519L132.907 133.425C133.799 132.894 137.739 129.429 138.165 129.433C138.834 128.854 139.514 128.789 139.848 128.072L139.709 128.028C139.256 128.198 137.658 129.029 137.5 129.05C137.858 128.408 141.113 125.942 141.822 125.456C142.348 125.482 142.143 125.517 142.626 125.231Z" fill="#F4444B"/>
<path d="M142.626 125.231C144.176 126.494 145.835 125.407 147.754 125.087C148.727 128.692 150.107 132.036 151.357 135.538C151.73 136.581 152.679 138.995 152.868 139.989L152.491 140.214C151.642 137.576 148.36 127.958 147.018 125.686C146.427 125.58 146.609 125.615 145.955 125.911C145.02 127.032 145.797 128.944 146.321 130.133C147.298 132.349 148.185 134.528 149.041 136.795C149.674 138.429 150.241 140.087 150.741 141.765C150.83 142.065 151.431 144.366 151.487 144.488C150.938 146.443 151.632 147.408 151.506 148.621L151.253 148.574L151.149 150.404C150.666 148.501 150.788 144.582 150.26 142.489C149.222 138.367 147.051 134.256 145.603 130.219C145.3 129.372 144.801 127.207 144.454 126.834C143.926 126.936 143.427 127.612 143.019 128.049L143.116 128.288L142.035 129.328C141.738 128.675 141.836 128.575 141.299 128.334C140.013 129.09 133.549 133.625 132.746 133.519L132.907 133.425C133.799 132.894 137.739 129.429 138.165 129.433C138.834 128.854 139.514 128.789 139.848 128.072L139.709 128.028C139.256 128.198 137.658 129.029 137.5 129.05C137.858 128.408 141.113 125.942 141.822 125.456C142.348 125.482 142.143 125.517 142.626 125.231Z" fill="#C40D1C"/>
<path d="M141.822 125.456C142.206 125.998 142.418 126.198 142.365 126.874C141.762 128.016 139.397 129.199 138.165 129.433C138.834 128.854 139.514 128.789 139.848 128.072L139.709 128.028C139.256 128.198 137.658 129.029 137.5 129.05C137.858 128.408 141.113 125.942 141.822 125.456Z" fill="#AE0413"/>
<path d="M143.931 120.533L144.386 120.752C144.733 122.76 143.55 123.838 142.626 125.231C142.143 125.517 142.348 125.482 141.822 125.456C141.113 125.942 137.858 128.408 137.5 129.05C136.547 129.436 135.907 130.146 135.022 130.615C131.839 132.301 129.664 134.646 126.259 135.85C124.522 137.159 123.575 137.966 121.469 138.657C124.613 136.329 125.825 134.228 128.785 132.295C129.352 131.641 134.779 127.076 135.761 126.585C137.219 125.872 141.398 123.179 142.598 122.061C143.277 121.522 143.434 121.25 143.931 120.533Z" fill="#F4222F"/>
<path d="M128.785 132.295C129.004 133.396 127.08 134.985 126.259 135.85C124.522 137.159 123.575 137.966 121.469 138.657C124.613 136.329 125.825 134.228 128.785 132.295Z" fill="#F4444B"/>
<path d="M104.777 147.318L105.361 147.002C106.034 147.607 106.923 154.592 105.786 155.39C104.89 156.018 102.765 158.064 101.752 158.343L101.365 158.268L102.023 158.018C102.093 157.56 102.004 157.449 101.828 157C102.37 155.794 103.27 156.017 103.258 155.175C102.851 154.724 102.608 154.375 102.054 154.135C101.425 154.355 101.041 154.808 100.545 155.275L100.262 155.124L100.421 155.378L100.123 155.296C101.656 152.805 103.033 152.237 104.349 150.616C103.826 150.742 103.539 150.908 103.063 151.14C102.994 151.316 103.024 151.315 102.898 151.414C100.578 153.228 98.5742 156.836 95.7974 157.782C96.0787 157.202 96.4795 157.146 96.9958 156.747L96.7629 156.364L95.6556 156.864C97.8376 154.777 101.854 147.651 104.777 147.318Z" fill="#AE0413"/>
<path d="M103.063 151.14C102.994 151.316 103.024 151.315 102.898 151.414C100.578 153.228 98.5742 156.836 95.7974 157.782C96.0787 157.202 96.4795 157.146 96.9958 156.747L96.7629 156.364L95.6556 156.864C97.8376 154.777 101.854 147.651 104.777 147.318L104.686 147.42C101.828 150.572 100.095 150.82 98.6157 155.153C99.668 154.064 101.802 151.468 103.063 151.14Z" fill="#C40D1C"/>
<path d="M46.4023 170.205C45.6569 169.989 45.9633 169.989 45.2354 170.174C41.9822 169.18 41.0842 155.869 42.5807 154.402L42.8595 154.494C42.9338 155.196 42.8983 155.402 42.8102 156.075C44.0783 156.537 43.4007 158.964 43.9429 160.464C46.7171 168.143 47.887 173.261 56.128 176.352C57.0847 176.707 58.0448 177.053 59.0081 177.39L59.0228 177.666C57.4419 178.252 54.494 176.6 52.6866 176.067C50.2749 175.355 48.1309 171.526 46.4023 170.205Z" fill="#F4444B"/>
<path d="M46.4023 170.205C45.6569 169.989 45.9633 169.989 45.2354 170.174C41.9822 169.18 41.0842 155.869 42.5807 154.402L42.8595 154.494C42.9338 155.196 42.8983 155.402 42.8102 156.075C42.5078 160.34 43.1152 167.1 46.4023 170.205Z" fill="#C40D1C"/>
<path d="M143.429 119.405C143.726 118.399 143.304 117.525 143.236 116.353C143.946 115.651 144.266 116.354 145.589 115.45L145.754 115.587C145.07 116.553 144.22 115.843 144.048 117.506L144.331 117.906L144.749 117.896C145.586 116.952 144.815 116.983 145.509 116.447L145.812 116.572L145.471 117.106C145.861 117.302 146.105 117.256 146.555 117.256C146.722 117.589 147.059 118.215 147.156 118.538C147.762 120.548 149.347 119.615 150.567 120.69C150.843 121.428 150.853 121.526 150.803 122.314C150.252 123.304 148.695 124.398 147.754 125.087C145.835 125.407 144.176 126.494 142.626 125.231C143.55 123.838 144.733 122.76 144.386 120.752L143.931 120.533L143.429 119.405Z" fill="#AE0413"/>
<path d="M54.8504 143.28C55.7612 142.336 56.4622 141.548 57.5378 140.782C55.4934 145.357 50.4853 150.76 50.2147 155.279C50.7627 154.793 50.5907 154.8 51.2043 154.703C51.9888 155.415 51.907 160.182 52.6689 161.533C53.2484 162.561 54.2976 164.334 54.576 165.413L54.4681 165.772C53.7956 165.632 52.9291 164.65 52.2478 164.127L52.1022 163.934L51.3852 163.256L50.5445 163.957C49.8786 162.746 49.615 161.919 49.2759 160.604C48.0918 157.716 49.1003 154.773 50.0576 152.034C51.1561 150.275 51.9668 148.72 52.6904 146.782C53.4511 145.64 54.1715 144.472 54.8504 143.28Z" fill="#C40D1C"/>
<path d="M50.2147 155.279C50.7627 154.793 50.5907 154.8 51.2042 154.703C51.9887 155.415 51.907 160.182 52.6689 161.533C53.2484 162.561 54.2975 164.334 54.576 165.413L54.4681 165.772C53.7955 165.632 52.9291 164.65 52.2478 164.127L52.1022 163.934L51.3852 163.256L50.7101 161.408C50.1668 159.234 50.23 157.506 50.2147 155.279Z" fill="#F4444B"/>
<path d="M49.2759 160.604C49.5946 160.886 49.6316 161.028 49.9644 161.049C50.0649 160.592 49.9678 160.396 49.8481 159.927C50.0621 160.174 50.0749 160.161 50.2337 160.445L50.1964 160.679C50.4125 160.895 50.5568 161.147 50.7101 161.408L51.3852 163.256L50.5445 163.957C49.8786 162.746 49.615 161.919 49.2759 160.604Z" fill="#AE0413"/>
<path d="M143.429 119.405L143.931 120.533C143.434 121.25 143.277 121.522 142.598 122.061C141.398 123.179 137.219 125.872 135.761 126.585L135.179 126.044C132.589 127.145 130.59 130.491 126.536 131.74C131.088 126.988 135.169 122.022 141.646 120.167C142.138 120.026 142.715 119.782 143.206 119.604L143.429 119.405Z" fill="#F4444B"/>
<path d="M141.748 121.403C142.181 121.624 142.364 121.661 142.598 122.061C141.397 123.179 137.219 125.872 135.761 126.585L135.179 126.044C137.152 124.772 139.948 122.848 141.748 121.403Z" fill="#AE0413"/>
<path d="M143.429 119.405L143.931 120.533C143.434 121.25 143.277 121.522 142.598 122.061C142.364 121.661 142.181 121.624 141.748 121.403C142.466 120.677 142.646 120.456 143.206 119.604L143.429 119.405Z" fill="#C40D1C"/>
<path d="M74.3391 73.4081C74.0611 73.0879 73.796 72.1982 73.402 71.649C71.3912 68.8454 72.9911 67.1289 72.7986 64.8786C72.3841 60.0347 71.9179 54.8653 71.5845 49.998C71.5545 49.5599 72.1991 49.1356 72.5165 48.9378L72.6769 48.8395C72.1182 46.467 75.7435 39.8067 77.7745 38.6637L77.8167 38.9394C75.1598 42.4393 73.085 46.3012 72.834 50.8055C72.7869 51.6517 73.1231 53.0802 72.8376 53.6878L72.2379 53.2167L72.051 53.5784C72.1306 53.7917 72.3467 54.1345 72.4682 54.3457C73.4005 56.2653 73.5397 65.3498 73.9776 68.0731C74.9744 74.2699 76.8663 80.0277 78.6489 85.9936L78.0811 86.0451C77.9614 85.2101 76.8367 81.9546 76.5268 81.0277C75.6486 78.4017 74.9831 76.1152 74.3391 73.4081Z" fill="#C40D1C"/>
<path d="M72.4682 54.3457C73.4004 56.2653 73.5397 65.3498 73.9776 68.0731C74.9743 74.2699 76.8663 80.0277 78.6488 85.9936L78.0811 86.0451C77.9614 85.2101 76.8367 81.9546 76.5267 81.0277C75.6486 78.4017 74.9831 76.1152 74.3391 73.4081C73.3943 68.5778 72.429 59.2219 72.4682 54.3457Z" fill="#6E030D"/>
<path d="M164.365 105.285C164.685 105.541 164.699 105.516 165.092 105.567C166.007 105.297 166.963 104.362 167.723 103.722C166.762 106.725 152.952 117.422 149.436 118.077L149.361 117.845C149.574 117.545 149.832 117.182 150.133 116.758C149.972 116.147 150.253 115.604 150.844 115.076C152.482 113.615 155.226 112.714 156.961 111.444C158.9 110.025 162.369 106.395 164.365 105.285Z" fill="#F4444B"/>
<path d="M146.72 49.9062L146.631 49.6929C147.887 48.8599 149.142 49.0127 149.735 47.7241C151.284 46.6003 158.378 44.3351 160.461 43.5421C160.992 43.3399 161.359 43.7673 161.834 44.1082C162.721 44.2091 162.92 43.9655 163.83 43.5968L164.167 43.7665C163.998 44.1442 164.011 43.96 164.064 44.3255C165.792 45.5511 168.855 44.7072 170.975 45.3461C172.165 45.7046 174.579 46.9992 175.645 46.7608C175.949 46.9192 176.594 47.5717 176.876 47.8391C173.016 46.7957 170.386 45.2137 166.335 45.196L166.601 45.4272C165.641 45.6593 162.695 46.1568 161.757 46.1449C159.626 45.9033 152.648 48.3798 150.378 49.0558C149.47 49.3263 147.692 50.1223 146.788 50.1743L146.72 49.9062Z" fill="#F4444B"/>
<path d="M162.597 45.5543L161.757 46.1449C159.627 45.9033 152.648 48.3798 150.379 49.0558C149.47 49.3263 147.692 50.1223 146.788 50.1743L146.72 49.9062C147.209 49.784 150.435 48.4516 151.244 48.1691C155.46 46.6961 158.219 46.1149 162.597 45.5543Z" fill="#AE0413"/>
<path d="M162.597 45.5543C163.658 44.9463 165.121 45.1364 166.335 45.196L166.601 45.4272C165.641 45.6593 162.695 46.1568 161.757 46.1449L162.597 45.5543Z" fill="#D82E35"/>
<path d="M101.31 146.776C101.361 146.444 101.526 145.309 101.43 145.041C99.5213 139.713 96.5294 134.775 95.1147 129.25C94.9633 128.659 94.4279 127.717 94.5535 127.17C95.024 127.562 97.9197 132.471 98.2167 133.192C100.151 137.897 101.788 142.402 104.114 146.949L103.951 146.975C101.69 147.35 100.318 150.718 97.4173 150.832C96.9181 150.852 94.3087 153.676 93.2117 153.522C94.6544 151.513 98.3432 150.571 99.077 149.111C99.1466 149.236 99.3727 149.387 99.4998 149.487C100.251 149.141 100.909 147.559 101.31 146.776Z" fill="#C40D1C"/>
<path d="M101.31 146.776C101.905 146.499 102.058 146.39 102.729 146.501L102.93 146.806L102.801 147.106C102.111 147.615 102.076 147.827 101.371 147.847C101.159 147.374 101.206 147.312 101.31 146.776Z" fill="#C40D1C"/>
<path d="M85.8726 109.211C85.4826 108.956 85.6427 109.117 85.4077 108.679C85.7964 107.679 87.5036 106.122 88.6081 106.109L88.6717 106.275L88.4793 106.136L88.6645 106.449C88.6213 106.688 88.3947 106.952 88.2421 107.175L87.8031 108.805C88.9363 109.736 90.507 115.141 90.8264 116.7L90.7434 116.987C90.2039 115.148 89.2242 111.706 88.385 110.146L88.1314 110.055C87.7171 110.934 84.3656 113.458 83.4636 114.188C79.877 117.088 76.3236 119.726 73.6491 123.563C73.3472 123.996 72.5523 124.336 72.0454 124.522C71.765 124.298 71.7748 124.316 71.5926 124.009L67.5383 126.855L66.7155 126.464C67.9947 124.912 69.9463 124.268 71.5089 123.018C75.4291 119.88 80.0267 117.201 82.9799 113.025C84.1857 111.32 84.2593 110.988 85.7822 109.483L85.8726 109.211Z" fill="#F4444B"/>
<path d="M85.8727 109.211C85.4827 108.956 85.6427 109.117 85.4077 108.679C85.7965 107.679 87.5036 106.122 88.6081 106.109L88.6718 106.275L88.4793 106.136L88.6645 106.449C88.6213 106.688 88.3948 106.952 88.2421 107.175L87.8032 108.805C87.447 109.372 87.3286 109.655 86.7155 109.962C86.0939 109.876 86.3327 109.963 85.7822 109.483L85.8727 109.211Z" fill="#F4444B"/>
<path d="M88.2421 107.175L87.8031 108.805C87.4469 109.372 87.3285 109.655 86.7154 109.962C86.0938 109.876 86.3326 109.963 85.7821 109.483L85.8726 109.211C86.513 108.568 87.524 107.774 88.2421 107.175Z" fill="#C40D1C"/>
<path d="M58.8843 169.706C61.0524 169.951 66.5522 170.152 67.9841 171.33L66.9041 171.324C67.2288 171.856 67.3446 172.179 67.9015 172.438C66.9073 172.577 65.8774 172.716 64.87 172.648C61.9923 172.966 61.1171 172.777 58.235 172.185C57.1182 171.841 55.1 171.365 54.4198 170.449C55.0485 169.671 56.4314 171.09 57.2864 170.863L57.0888 170.347L57.4858 170.012C58.0019 170.082 58.3572 170.141 58.8639 170.261L58.8843 169.706Z" fill="#C40D1C"/>
<path d="M58.8843 169.706C61.0524 169.951 66.5522 170.152 67.9841 171.33L66.9041 171.324C67.2288 171.856 67.3446 172.179 67.9015 172.438C66.9073 172.577 65.8774 172.716 64.87 172.648C64.0689 172.062 64.302 172.359 63.9869 171.432C62.0004 171.084 60.7903 170.831 58.8639 170.261L58.8843 169.706Z" fill="#F4444B"/>
<path d="M63.9868 171.432C64.872 171.405 66.0457 171.404 66.9041 171.324C67.2287 171.856 67.3445 172.179 67.9014 172.438C66.9073 172.577 65.8773 172.716 64.8699 172.648C64.0688 172.062 64.3019 172.359 63.9868 171.432Z" fill="#B9283A"/>
<path d="M120.23 184.458C123.567 185.903 126.665 188.106 130.296 188.311C130.011 188.772 129.597 189.374 129.426 189.869C128.746 190.157 125.934 189.464 125.2 189.186C123.4 188.765 119.907 187.01 118.462 185.88C119.22 185.772 119.244 185.928 120.063 186.25C120.21 185.774 120.05 185.535 119.827 185.102L119.772 184.998L120.23 184.458Z" fill="#C40D1C"/>
<path d="M118.462 185.88C119.22 185.772 119.244 185.928 120.063 186.25L120.188 186.308C121.65 186.97 124.614 187.675 125.329 188.792L125.2 189.186C123.4 188.765 119.907 187.01 118.462 185.88Z" fill="#6E030D"/>
<path d="M151.149 150.404L151.253 148.574L151.506 148.621C152.546 155.814 154.014 164.561 151.027 171.504L150.642 171.047C152.532 166.288 151.297 155.352 151.149 150.404Z" fill="#AE0413"/>
<path d="M127.63 183.105L127.717 182.706C129.526 183.314 132.116 184.26 133.932 184.554C136.431 185.487 141.82 184.562 143.838 182.721L144.453 182.821L144.642 183.087C144.414 183.714 143.729 184.113 143.162 184.514C140.431 185.701 135.949 186.578 133.088 185.627C131.723 185.173 128.616 184.081 127.63 183.105Z" fill="#F4444B"/>
<path d="M82.7857 163.128C83.3556 163.684 83.2689 163.442 83.3073 164.059C79.6281 165.591 78.3735 167.359 76.1484 168.367C74.5183 168.731 72.1394 168.959 70.4444 169.045C69.9756 169.068 69.7146 168.628 69.3938 168.268C70.725 167.958 72.2057 167.883 73.5603 167.461C76.6253 166.507 79.9055 164.625 82.7857 163.128Z" fill="#F4444B"/>
<path d="M85.6921 28.1612C86.8329 28.0424 88.9948 28.2091 90.1025 28.4345C88.7008 28.7449 87.2521 28.7937 85.8377 29.0368C82.7861 29.5616 80.3055 31.2883 77.7759 32.9542C76.9276 33.4741 75.9747 34.2933 74.9541 34.3284L74.7916 34.0012C74.9057 33.7632 75.0373 33.5365 75.2044 33.331C77.3357 30.7127 82.3799 28.5987 85.6921 28.1612Z" fill="#F4444B"/>
<path d="M76.1484 168.367C77.5081 168.589 77.9373 168.553 79.2394 168.093C78.6635 168.558 77.5122 169.426 76.8682 169.758C74.6318 170.112 70.9243 172.183 67.9015 172.438C67.3445 172.179 67.2287 171.856 66.9041 171.324L67.9841 171.33C69.2904 171.21 74.3063 169.992 75.128 169.004C74.3271 168.41 67.495 170.18 66.0027 169.22C66.6024 168.75 68.6034 168.317 69.3938 168.268C69.7146 168.628 69.9756 169.068 70.4444 169.045C72.1395 168.959 74.5183 168.731 76.1484 168.367Z" fill="#D82E35"/>
<path d="M72.4869 78.9688C72.4895 79.1072 72.4761 79.0397 72.5399 79.187C73.747 81.9738 74.5217 85.4398 75.5977 88.3803C77.1639 92.6602 79.5947 96.6775 80.4395 101.172C80.373 101.126 80.233 101.038 80.171 100.969C79.5325 100.258 78.988 98.027 78.576 97.0847C77.2755 94.1092 75.4086 91.3175 74.3559 88.2453C73.8156 86.6689 73.6146 84.9246 73.2359 83.295C72.9131 81.9061 72.4105 80.4009 72.4869 78.9688Z" fill="#C40D1C"/>
<path d="M105.714 165.871C107.287 170.315 109.742 172.199 111.69 176.403C111.918 176.894 112.552 178.001 112.666 178.408L112.068 178.707C111.082 177.191 109.795 175.748 108.811 174.31C107.455 172.329 105.902 168.294 105.272 165.969L105.714 165.871Z" fill="#C40D1C"/>
<path d="M127.63 183.105C127.169 183.031 126.733 183.472 126.228 183.338C124.739 182.946 124.515 182.062 122.875 182.467C120.955 181.828 112.517 174.972 112.251 172.88L112.532 172.661C113.223 172.956 113.912 174.366 114.477 175.011C118.225 179.288 122.096 181.488 127.717 182.706L127.63 183.105Z" fill="#C40D1C"/>
<path d="M154.025 181.352C154.904 179.338 156.658 173.723 157.143 172.852L157.911 172.601C158.406 172.437 158.525 172.337 158.942 172.021C159.254 172.851 157.492 176.86 157.014 177.854C156.106 179.742 156.332 179.919 154.761 181.385L154.025 181.352Z" fill="#F4444B"/>
<path d="M154.025 181.352L154.761 181.385C152.903 183.384 151.784 188.53 147.909 189.497C147.601 189.346 146.957 189.131 146.608 189.002C146 189.482 145.91 189.538 145.182 189.799C145.059 189.258 145.007 189.18 145.134 188.659C145.908 187.598 146.656 187.374 147.926 187.096C148.045 187.493 148.097 187.637 148.266 188.016L148.682 188.074C150.773 187.48 152.217 182.934 154.025 181.352Z" fill="#F4444B"/>
<path d="M108.384 177.438C109.704 178.58 110.595 180.608 111.679 182.009C114.994 186.293 119.779 188.395 124.583 190.51C124.531 190.529 124.481 190.552 124.428 190.568C123.521 190.84 120.585 189.477 119.703 189.039C114.753 186.582 110.185 182.782 108.384 177.438Z" fill="#AE0413"/>
<path d="M65.3111 40.3023L65.5576 40.928C63.6077 43.8154 62.7249 46.9388 61.8514 50.2888C61.5308 51.5189 61.2121 56.9433 60.8235 57.3272C60.7805 57.1999 60.7593 57.1545 60.7443 57.0044C60.1591 51.0648 61.785 45.1179 65.3111 40.3023Z" fill="#6E030D"/>
<path d="M153.387 43.504C153.7 43.5587 153.828 43.7725 154.049 43.9915L153.991 43.9932C152.553 45.04 150.383 45.2457 148.723 45.9559C145.872 47.1764 143.2 48.7209 140.622 50.4351C140.203 50.7044 140.013 50.9443 139.498 50.8519C139.512 50.7797 139.525 50.6827 139.557 50.612C140.56 48.3975 151.121 44.2487 153.387 43.504Z" fill="#AE0413"/>
<path d="M180.271 85.8662C180.557 86.1155 181.095 86.4649 181.043 86.8677C180.792 88.8233 178.119 92.2266 176.784 93.5556L175.866 93.4586C176.335 92.2568 178.661 89.0881 179.149 87.5579C179.662 86.9205 179.863 86.5764 180.271 85.8662Z" fill="#F4444B"/>
<path d="M187.434 52.2176C187.954 52.5025 188.942 54.8879 189.346 55.5534L189.326 55.3454C190.183 56.9365 190.907 58.5622 191.208 60.3585C191.308 60.957 191.168 61.1841 190.837 61.6589L190.584 61.5196L190.204 59.4548C190.21 61.1929 190.39 62.8856 190.429 64.6123C190.505 65.882 190.099 66.9618 190.155 68.2521C189.789 66.6688 190.029 64.7477 189.976 63.1097C189.853 59.3198 188.827 55.7171 187.434 52.2176Z" fill="#AE0413"/>
<path d="M179.149 87.5579C179.061 86.6359 180.206 84.5981 180.685 83.6624C183.025 79.0897 184.641 74.6229 185.171 69.5163C186.615 72.6489 181.851 83.0893 180.271 85.8662C179.863 86.5765 179.662 86.9205 179.149 87.5579Z" fill="#AE0413"/>
<path d="M78.6488 85.9936C79.5085 88.6815 79.7699 91.3805 80.7871 94.1128C81.2676 95.4035 84.2253 101.471 84.2283 102.101C83.771 101.89 80.9446 96.515 80.6985 95.7812C79.8787 93.3372 78.2884 88.4959 78.0811 86.0451L78.6488 85.9936Z" fill="#C40D1C"/>
<path d="M51.3851 163.256L52.1022 163.934L52.2478 164.127C52.7108 165.267 52.8283 166.016 53.7167 166.825L53.8308 166.93C54.7113 167.73 57.7237 169.564 58.8842 169.706L58.8638 170.261C58.3571 170.141 58.0018 170.082 57.4857 170.012L57.0887 170.347C55.7832 169.684 52.6919 167.01 51.6947 165.848C51.217 165.232 50.7265 164.71 50.5444 163.957L51.3851 163.256Z" fill="#D82E35"/>
<path d="M51.3851 163.256L52.1022 163.934C52.0613 164.643 52.1032 165.279 51.6947 165.848C51.217 165.232 50.7265 164.71 50.5444 163.957L51.3851 163.256Z" fill="#C40D1C"/>
<path d="M167.537 94.632C167.68 94.7444 167.875 94.7651 168.05 94.8085L168.084 95.0176C166.018 97.7702 161.123 101.85 158.29 103.993L158.197 104.02L158.029 103.924C158.683 102.646 164.494 97.3798 165.821 96.1461C166.383 95.6235 167.06 95.2177 167.537 94.632Z" fill="#F4444B"/>
<path d="M112.068 178.707L112.666 178.408C114.083 180.345 118.145 184.118 120.23 184.458L119.772 184.998L119.827 185.102C120.05 185.535 120.21 185.774 120.063 186.25C119.244 185.928 119.22 185.772 118.461 185.88C118.021 185.614 117.84 185.462 117.441 185.132C117.855 184.823 117.963 184.785 118.195 184.343C115.987 183.014 113.405 180.932 112.068 178.707Z" fill="#AE0413"/>
<path d="M59.3295 132.489C61.0047 130.258 61.8812 129.42 64.356 128.049C65.174 127.596 66.0455 127.118 66.7155 126.464L67.5383 126.855C65.6395 128.589 61.7055 131.434 59.3295 132.489Z" fill="#F4444B"/>
<path d="M111.431 144.017L111.554 144.04C111.815 144.367 111.826 144.37 111.824 144.786C110.705 146.031 109.228 147.509 107.678 148.172L107.167 147.813C107.054 147.497 106.947 147.378 107.084 147.054C107.713 145.574 110.006 144.551 111.431 144.017Z" fill="#C40D1C"/>
<path d="M82.7858 163.128C83.9086 162.227 89.3617 159.136 90.6012 158.706L90.9774 158.784C90.8707 159.057 84.4719 163.555 83.5302 163.965C83.4564 163.997 83.3821 164.028 83.3074 164.059C83.269 163.442 83.3557 163.684 82.7858 163.128Z" fill="#F4444B"/>
<path d="M164.365 105.285C166.772 103.332 168.631 101.225 170.886 99.3267L171.662 99.7265C170.308 101.017 168.994 102.35 167.723 103.722C166.963 104.362 166.007 105.297 165.092 105.567C164.699 105.516 164.685 105.541 164.365 105.285Z" fill="#EF6D74"/>
<path d="M175.866 93.4586L176.784 93.5556C175.231 96.4876 174.266 97.6789 171.662 99.7265L170.886 99.3267C172.913 97.4256 174.235 95.7241 175.866 93.4586Z" fill="#EF6D74"/>
<path d="M89.1763 30.0806C89.3258 30.0836 89.4601 30.0936 89.6027 30.1425C90.8826 30.582 92.1572 30.4859 93.4961 30.5988C92.078 30.7244 89.9451 32.0051 88.7371 31.7054C88.4829 31.5076 88.1919 31.2423 87.8798 31.1499C87.4555 31.0243 87.123 31.2958 86.7519 31.4821C85.3664 31.8746 84.1225 32.7696 82.7251 33.1718C84.4861 31.7807 87.0996 30.9356 89.1763 30.0806Z" fill="#F4444B"/>
<path d="M160.295 158.531C160.31 158.566 160.327 158.6 160.339 158.635C160.919 160.272 161.536 167.282 161.556 169.191C161.559 169.56 161.449 169.896 161.282 170.221C161.189 170.047 161.116 169.873 161.066 169.68C160.665 168.127 159.656 160.48 159.965 159.139C160.005 158.966 160.205 158.696 160.295 158.531Z" fill="#AE0413"/>
<path d="M147.849 181.729C148.597 181.076 148.505 180.947 149.337 180.821C149.609 182.083 146.054 184.642 144.854 185.141L144.722 184.962C144.996 183.998 147.003 182.458 147.849 181.729Z" fill="#F4444B"/>
<path d="M64.6877 59.7527C64.6975 59.7786 64.7092 59.8042 64.7173 59.8308C65.0754 60.9936 65.8307 68.5323 65.3766 69.4528C64.9278 68.8933 64.898 67.7635 64.7903 67.0493C64.4595 65.2987 63.8319 63.1525 64.0141 61.3693C64.3096 62.2286 64.237 63.1896 64.5278 63.9817C64.5896 64.1497 64.5849 64.2108 64.5536 64.3854C64.8233 62.8149 64.6098 61.3312 64.6877 59.7527Z" fill="#AE0413"/>
<path d="M146.608 189.002C146.957 189.131 147.601 189.346 147.909 189.497C146.665 190.24 144.391 191.971 143.202 191.681C142.682 190.314 144.168 190.076 145.182 189.799C145.91 189.538 146 189.482 146.608 189.002Z" fill="#F4444B"/>
<path d="M79.2393 168.093C80.1486 167.497 81.1485 166.666 82.1955 166.836C81.8877 168.443 78.7373 169.557 77.2727 169.722L77.1253 169.739C77.0395 169.746 76.9537 169.752 76.8682 169.758C77.5122 169.426 78.6635 168.558 79.2393 168.093Z" fill="#B9283A"/>
<path d="M48.0624 151.135C46.8231 149.71 47.799 147.788 49.2369 146.858C49.5285 146.669 49.887 146.882 50.2315 146.995C49.5651 148.031 48.2748 149.953 48.0624 151.135Z" fill="#C40D1C"/>
<path d="M138.16 111.452C138.215 111.478 138.27 111.502 138.324 111.531C139.265 112.037 140.679 115.338 140.943 116.385C140.659 116.345 140.318 116.307 140.084 116.128C139.033 115.329 138.397 112.713 138.16 111.452Z" fill="#C40D1C"/>
<path d="M105.272 165.969C104.786 164.665 103.547 161.225 103.374 160.014L103.624 159.77C104.118 160.184 105.435 164.973 105.714 165.871L105.272 165.969Z" fill="#AE0413"/>
<path d="M160.606 173.463L160.842 173.927C160.77 175.718 159.853 177.706 158.753 179.116L158.513 178.707C159.252 176.947 160.025 175.292 160.606 173.463Z" fill="#C40D1C"/>
<path d="M143.913 181.964L144.18 181.455C144.839 180.993 146.479 179.787 147.234 179.911L147.03 180.382C146.125 181.127 145.158 181.99 144.143 182.556L143.913 181.964Z" fill="#6E030D"/>
<path d="M150.642 171.047L151.027 171.504C150.928 172.991 149.846 175.697 148.746 176.946C148.752 176.981 150.483 171.705 150.642 171.047Z" fill="#C40D1C"/>
<path d="M104.795 33.8603C106.428 34.3178 108.496 35.1095 109.802 36.2004C108.271 36.1706 105.998 34.7976 104.795 33.8603Z" fill="#C40D1C"/>
<path d="M67.699 37.1339C67.1338 38.3506 66.3538 39.8472 65.5576 40.928L65.311 40.3023C66.1134 39.183 66.8238 38.1994 67.699 37.1339Z" fill="#6E030D"/>
<path d="M58.0001 38.6743C58.2111 38.7271 58.3188 38.8266 58.4961 38.9524C58.3654 40.3687 55.0771 42.7989 53.9671 43.8382C49.8121 47.7292 46.2422 51.6083 43.0729 56.3815C41.8547 58.2164 41.0949 60.3077 39.7166 62.0453L39.3277 62.0629L39.2789 61.611C43.0897 52.7383 50.5462 44.7038 58.0001 38.6743Z" fill="#F02430"/>
<path d="M209.001 138.816C209.054 138.847 209.123 139.058 209.148 139.117C206.591 145.656 198.472 157.588 193.601 162.556C192.604 163.573 191.378 164.458 190.256 165.336L190.032 164.979C190.281 164.179 193.898 160.744 194.706 159.721C199.056 154.211 203.557 148.354 206.935 142.183C207.534 141.09 208.063 139.653 209.001 138.816Z" fill="#C1866F"/>
<path d="M28.4773 67.0505L29.3101 67.6409C28.1256 70.146 25.8464 73.5982 24.3146 76.0237C23.4662 78.2469 21.1312 83.9311 20.0674 86.0108L19.6958 85.7147C19.8836 84.9474 19.867 84.7679 19.845 83.9924C20.5525 81.7947 22.3226 78.0663 23.2736 75.6339C23.7089 74.5732 27.6793 68.2908 28.4773 67.0505Z" fill="#9B8483"/>
<path d="M185.77 168.115C186.01 168.101 186.254 168.098 186.491 168.144C187.264 168.295 188.122 168.67 188.518 169.385C188.789 169.873 188.81 170.489 188.642 171.017C188.341 171.957 187.582 172.399 186.766 172.849C186.404 172.87 185.996 172.911 185.638 172.861C185.067 172.781 184.476 172.346 184.163 171.872C183.811 171.341 183.783 170.672 183.939 170.07C184.21 169.023 184.897 168.633 185.77 168.115Z" fill="#806464" fill-opacity="0.913725"/>
<path d="M28.4773 67.0505C29.7791 64.7437 34.9832 57.3108 37.1047 56.1614L37.1637 56.3747C34.9402 59.917 31.7564 64.0545 29.3101 67.6409L28.4773 67.0505Z" fill="#9B8483"/>
<path d="M91.5606 15.3819L92.0656 16.193C88.2993 16.3491 80.6585 20.9195 79.2432 20.8237L79.3436 20.5109C82.4284 17.8239 87.6587 16.4286 91.5606 15.3819Z" fill="#B16767"/>
<path d="M126.305 201.234L126.715 201.209L126.778 201.467L126.647 201.566C124.605 203.09 117.745 203.798 115.223 203.43L114.729 203.146C115.73 202.008 124.194 202.138 126.305 201.234Z" fill="#F02430"/>
<path d="M19.845 83.9924C19.867 84.7679 19.8836 84.9474 19.6958 85.7147L20.0674 86.0108C19.9306 87.1019 17.5474 94.15 17.0613 95.1868C17.385 90.566 18.1682 88.362 19.845 83.9924Z" fill="#947171"/>
<path d="M36.013 68.4597C36.2459 68.4829 36.6288 68.5821 36.8426 68.697C37.2311 68.9059 37.4449 69.1075 37.5581 69.5358C37.7842 70.391 37.1153 71.4542 36.7357 72.1976C36.2556 72.1972 35.8846 72.1693 35.4986 71.854C35.1586 71.5762 34.9721 71.1974 34.9551 70.7593C34.9159 69.7404 35.3732 69.191 36.013 68.4597Z" fill="#944C4D"/>
<path d="M23.471 115.116C23.6171 115.29 23.7427 115.473 23.785 115.702C23.9775 116.739 24.1267 120.953 23.7716 121.857C23.6965 122.048 23.4463 122.309 23.3201 122.484C23.0874 122.147 22.9526 121.827 22.8683 121.425C22.4949 119.642 22.4447 116.618 23.471 115.116Z" fill="#D82E35"/>
<path d="M91.5607 15.3819C93.0769 14.9486 96.9985 13.6834 98.3768 13.8429L98.4292 14.1066C97.4799 15.0353 93.4931 16.0392 92.0656 16.193L91.5607 15.3819Z" fill="#D82E35"/>
<path d="M139.753 19.4969C140.694 19.7964 141.037 19.9041 141.426 20.833C141.423 21.6327 140.993 22.1562 140.563 22.8385C138.674 22.9424 138.171 20.8938 139.753 19.4969Z" fill="#D82E35"/>
<path d="M137.217 201.866C137.617 201.781 137.95 201.832 138.352 201.888L138.46 202.132C138.426 202.175 138.394 202.22 138.359 202.261C137.678 203.055 134.456 203.452 133.433 203.56C132.857 203.673 132.284 203.827 131.771 203.516C132.486 202.601 135.977 202.138 137.217 201.866Z" fill="#D82E35"/>
<path d="M24.4113 143.148C24.6683 143.168 24.9618 143.21 25.2041 143.301C25.7155 143.494 26.2143 144.058 26.3916 144.562C26.6888 145.409 26.5047 145.872 26.1598 146.647C25.4587 146.37 24.839 145.754 24.4862 145.09C24.1037 144.369 24.1707 143.885 24.4113 143.148Z" fill="#D82E35"/>
<path d="M198.708 98.2518C199.344 98.3804 199.768 98.5984 200.163 99.1027C200.09 99.8163 199.865 100.031 199.455 100.606C199.244 100.587 199.036 100.561 198.835 100.489C198.294 100.296 198.043 100.005 197.787 99.5159C197.93 98.7676 198.135 98.7229 198.708 98.2518Z" fill="#D82E35"/>
<path d="M186.239 159.396C186.721 159.723 186.81 159.779 187.039 160.309C186.861 160.983 186.176 161.433 185.661 161.876C185.218 161.469 184.993 161.339 184.85 160.737C185.075 160.091 185.699 159.773 186.239 159.396Z" fill="#C40D1C"/>
<path d="M197.072 39.0974C197.397 38.9334 197.786 38.962 198.084 39.1714C198.381 39.3809 198.539 39.7373 198.495 40.0988C198.451 40.4601 198.211 40.7675 197.871 40.8986C197.38 41.0879 196.828 40.859 196.614 40.3783C196.401 39.8976 196.602 39.3343 197.072 39.0974Z" fill="#D82E35"/>
<path d="M92.048 176.038C92.6943 176.258 92.9415 176.276 93.3739 176.822C93.2498 177.507 93.0497 177.692 92.6211 178.225C92.4985 178.245 92.4374 178.264 92.3043 178.243C91.84 178.171 91.7442 177.81 91.5601 177.443C91.6058 176.767 91.6286 176.607 92.048 176.038Z" fill="#C40D1C"/>
<path d="M223.454 115.248C224.478 114.223 224.844 109.8 225.607 107.838C226.286 109.802 224.208 113.072 225.081 115.003C222.254 124.223 220.567 133.408 215.877 142.045C214.877 143.89 214.27 146.149 213.146 148.202C197.423 176.94 167.832 198.239 136.86 207.822C135.722 208.174 133.906 208.129 132.601 208.421C114.565 212.464 97.4236 212.228 79.3139 208.731C55.8629 204.202 35.5487 188.9 21.3033 170.12C19.5294 167.781 17.7982 165.447 16.4326 162.918C16.9572 162.845 17.5313 162.803 18.0623 162.754C19.0331 163.685 21.2346 167.647 22.1336 168.928C23.4182 170.757 24.8254 172.41 26.2826 174.104C37.8596 187.726 52.7421 198.145 69.5028 204.362C80.6308 208.398 93.3853 209.659 105.345 209.729C154.794 210.017 202.098 176.347 219.171 130.122C220.976 125.232 221.657 120.136 223.382 115.443L223.454 115.248Z" fill="#A58987"/>
<path d="M3.10767 139.695L3.30306 138.739L4.25593 138.939C5.66872 145.928 8.6368 154.504 11.532 161.098C12.4369 163.158 14.6116 165.945 15.8734 168.612C16.0713 168.772 18.2373 171.928 18.6625 172.491C20.4526 174.831 22.2912 177.134 24.177 179.398C29.4994 185.734 39.3197 192.297 46.3353 196.478C70.6161 210.899 99.2156 216.263 127.072 211.624C133.811 210.479 141.47 208.423 148.257 206.98C154.256 204.951 160.852 203.209 166.605 200.446C182.159 192.974 195.953 181.366 206.59 167.858C209.429 164.252 211.722 160.225 214.232 156.688L215.058 157.246C203.327 177.568 185.457 193.65 164.014 203.181C138.846 214.475 104.824 218.675 77.8416 211.763C55.8738 206.136 33.935 194.16 19.8023 176.375C18.4568 174.682 14.4792 169.918 13.7343 167.919C9.21016 162.215 3.8521 146.981 3.10767 139.695Z" fill="#A3807E"/>
<path d="M3.10767 139.695L3.30306 138.739L4.25593 138.939C5.66872 145.928 8.6368 154.504 11.532 161.098C12.4369 163.158 14.6116 165.945 15.8734 168.612C15.7821 168.606 15.294 168.486 15.2704 168.433C14.4132 166.372 12.8581 164.686 11.781 162.796C11.0046 161.433 10.8304 159.774 9.64041 158.52C9.8415 161.565 12.5281 165.057 13.8681 167.502L13.7343 167.919C9.21016 162.215 3.8521 146.981 3.10767 139.695Z" fill="#9E8E8B"/>
<path d="M113.235 2.99577L113.33 3.00544C114.067 3.07554 119.658 2.4176 120.581 2.24435L121.255 2.63614L121.149 2.84641C119.505 3.01042 117.842 3.08393 116.191 3.17366L116.038 3.57068C113.407 4.08799 111.017 4.17023 108.448 5.14899L108.554 5.29533C111.268 5.15772 113.883 4.74603 116.603 4.62645C124.968 4.25868 133.524 4.81782 141.879 5.3041C145.804 5.53256 150.348 6.79723 154.279 7.29601C156.008 7.61441 159.355 8.44003 160.94 8.62015L161.577 9.88091C159.08 9.63383 156.757 9.00846 154.311 8.66756C139.277 6.5727 123.325 4.9771 108.192 6.82516C99.8572 7.84293 90.4581 10.0273 82.8045 13.5151C79.6383 14.958 76.4222 16.331 73.3368 17.9281C70.1104 19.6994 67.3241 21.8183 63.9074 23.4442L63.8708 23.1921C63.0146 23.2217 62.6033 23.9958 61.9305 24.125L61.7979 23.6662C61.922 23.3905 61.8409 23.3877 61.7132 23.0013L62.1123 22.665C63.5547 22.318 65.6695 21.6195 66.5528 20.3852C65.8234 20.4781 62.7155 22.1538 61.8268 22.5749C59.8212 22.9777 44.9521 34.2765 42.173 36.1505C40.7128 37.9714 38.2043 40.7643 36.184 41.9578C35.6009 42.768 32.9321 46.3831 32.2902 46.8689C31.5832 47.775 30.9224 48.3466 30.0855 49.1154L29.6284 47.804L30.523 46.8362C31.0405 46.0357 33.7853 42.8953 34.497 42.078C36.6289 39.782 38.5162 37.4494 41.0738 35.6074C41.7087 34.4887 49.7289 28.7468 51.2215 27.7226C56.2811 24.2514 62.071 20.3296 67.5555 17.5012C72.4942 15.6822 77.6753 12.4558 82.5452 10.7857C92.2038 7.47337 103.326 4.30177 113.235 2.99577Z" fill="#947171"/>
<path d="M41.0738 35.6075L40.9893 35.771C40.3643 36.9557 36.7441 39.9006 36.8011 40.6645L37.1058 40.7215C38.6177 39.6732 41.1739 36.0816 42.173 36.1505C40.7128 37.9714 38.2043 40.7643 36.184 41.9578C35.6009 42.768 32.9321 46.3831 32.2902 46.8689C31.5832 47.775 30.9224 48.3466 30.0855 49.1154L29.6284 47.804L30.523 46.8362C31.0405 46.0357 33.7853 42.8953 34.497 42.0781C36.6289 39.782 38.5162 37.4494 41.0738 35.6075Z" fill="#B16767"/>
<path d="M30.523 46.8362L31.2971 47.0614L31.7258 46.714L32.2902 46.8689C31.5832 47.775 30.9224 48.3466 30.0855 49.1154L29.6284 47.804L30.523 46.8362Z" fill="#947171"/>
<path d="M196.238 29.2567C201.575 32.4878 207.295 38.2999 211.4 42.9954C214.059 46.4274 216.391 50.4538 218.89 54.0506C218.23 52.1978 213.659 43.8361 212.365 42.5419L212.226 41.8345C211.788 40.3909 210.43 40.7854 210.133 38.3024C210.99 38.4955 211.543 40.8099 213.231 41.2929C214.33 42.2816 215.313 44.5621 216.127 45.959C216.874 47.2426 218.479 49.3287 219.062 50.5515C221.951 56.6093 224.827 62.9241 226.82 69.3344C227.465 71.4114 227.523 73.44 228.161 75.4093C227.55 76.2072 227.625 77.1375 227.587 78.146C226.746 74.7851 226.226 70.8713 224.668 67.5455C224.495 67.2596 223.872 65.5214 223.714 65.1022C222.922 62.7246 222.36 61.1399 221.076 58.998C221.587 61.0221 222.737 63.881 223.439 65.9637C223.761 66.6865 224.138 67.5325 224.327 68.3011C226.993 75.1323 227.518 83.8206 227.361 91.0414C227.333 92.3022 227.286 96.9808 227.41 98.0755C227.201 105.148 226.084 108.397 225.081 115.003C224.208 113.072 226.286 109.802 225.607 107.838C224.844 109.8 224.478 114.223 223.454 115.248C223.473 114.76 224.664 108.843 224.851 107.727C225.864 101.669 226.23 96.4512 226.152 90.3189C225.971 75.9817 221.713 60.3932 213.619 48.4586C211.056 44.6802 208.023 41.4522 204.891 38.1736C201.853 34.9931 198.323 32.9344 195.371 30.0878L196.238 29.2567Z" fill="#9B8483"/>
<path d="M136.003 3.58733C140.411 3.21141 144.02 3.80912 148.343 4.60114C150.047 4.91319 154.867 5.26276 155.989 6.54127L155.628 6.76168C151.501 5.33516 141.469 4.18479 136.965 4.25065L136.003 3.58733Z" fill="#7F605D"/>
<path d="M136.965 4.25065C135.998 4.27462 135.806 4.28818 134.928 3.91126L135.042 3.69667L136.003 3.58733L136.965 4.25065Z" fill="#947171" fill-opacity="0.894118"/>
<path d="M33.4851 48.9412L33.6231 48.8991C34.2024 48.7162 34.3041 48.6659 34.8051 48.3311C35.1121 48.5329 35.1568 48.5593 35.4329 48.828C29.79 55.7876 25.1094 62.1988 20.7331 70.0478C6.17189 96.1636 2.37769 131.836 16.4147 158.999C15.8658 159.561 15.8574 159.838 15.0394 159.684C5.02758 140.964 3.97838 115.795 9.29419 95.5755C9.90376 93.257 10.0225 90.8438 10.8087 88.5084C13.0816 81.7566 16.0845 75.1898 19.3782 68.8799C19.7068 68.2504 20.7134 67.2387 21.1523 66.5236C21.8656 65.3617 22.5458 63.6581 23.2311 62.5852C24.3123 60.8918 25.9795 58.5558 27.1883 56.9853C28.6046 55.1455 31.9353 50.2115 33.4851 48.9412Z" fill="#9E8F8D"/>
<path d="M29.6285 47.804L30.0855 49.1154C29.2702 50.3346 28.6153 51.5019 27.8215 52.7194C26.6044 54.586 24.7852 56.6349 23.7122 58.5692C21.4245 62.6573 19.2085 66.7878 17.0611 70.9513C16.1133 72.789 15.4713 75.2309 14.5221 76.9685C11.9242 81.7238 10.5704 86.0121 8.9332 91.1146C6.65671 98.2096 4.38949 105.354 3.6392 112.832C3.02482 119.482 3.40694 127.182 3.4803 133.901C3.70003 135.513 3.91015 137.371 4.25595 138.939L3.30307 138.739L3.10768 139.695C2.97856 139.014 2.87333 138.279 2.76194 137.59C2.73235 137.482 2.68831 137.333 2.67159 137.226C0.806546 125.334 1.85171 113.112 3.98343 101.327C4.78536 96.8931 6.85564 91.451 8.42831 87.2381C12.4079 76.2561 17.5717 65.74 23.8283 55.8761C25.4458 53.3504 27.8172 50.4862 29.6285 47.804Z" fill="#988A88"/>
<path d="M2.76184 137.59C2.76836 137.009 2.78396 136.521 2.82466 135.937C2.96215 136.313 3.10532 136.915 3.3672 137.122C3.55901 135.843 2.62457 135.282 3.4802 133.901C3.69992 135.513 3.91005 137.371 4.25584 138.939L3.30297 138.739L3.10758 139.695C2.97846 139.014 2.87323 138.279 2.76184 137.59Z" fill="#9B8483"/>
<path d="M229.524 90.2107L229.639 90.1962C229.945 89.892 229.875 89.625 229.932 89.1052L230.203 89.2042C230.169 89.6404 230.171 89.6672 230.235 90.0998L230.797 90.3091C231.255 92.4714 231.301 95.4878 231.348 97.7417C231.64 111.834 229.183 126.753 223.912 139.843C223.384 141.158 222.051 144.305 221.189 145.225C221.002 146.914 220.531 147.729 219.756 149.235L218.945 147.95C219.164 147.503 219.345 147.194 219.607 146.77C224.717 135.391 228.455 124.611 229.273 112.045C230.484 107.783 229.749 94.8113 229.524 90.2107Z" fill="#9E8E8B"/>
<path d="M219.607 146.77C221.132 146.006 220.182 145.834 221.189 145.225C221.002 146.914 220.531 147.729 219.756 149.235L218.945 147.95C219.164 147.503 219.345 147.194 219.607 146.77Z" fill="#9B8483"/>
<path d="M113.235 2.99577C114.783 2.53555 118.331 2.06517 119.963 1.82922C129.622 0.432559 142.933 0.416071 152.343 2.77901C152.498 3.43724 152.533 3.5068 153.055 3.93383C149.261 3.30983 144.348 3.07969 140.384 2.70735C132.49 1.96563 123.862 3.08101 116.038 3.57068L116.191 3.17366C117.842 3.08393 119.505 3.01042 121.149 2.84641L121.255 2.63614L120.581 2.24435C119.658 2.4176 114.067 3.07554 113.33 3.00544L113.235 2.99577Z" fill="#7F605D"/>
<path d="M224.668 67.5455C226.226 70.8713 226.746 74.7851 227.587 78.146C228.123 82.1847 228.972 86.0551 229.524 90.2107C229.749 94.8113 230.484 107.783 229.273 112.045C228.647 109.865 229.302 96.6915 228.266 95.7893C227.718 96.5195 227.723 99.1183 227.689 100.101C227.614 99.4233 227.521 98.7478 227.41 98.0755C227.286 96.9808 227.333 92.3021 227.361 91.0414C227.518 83.8206 226.993 75.1323 224.327 68.3011L224.668 67.5455ZM228.64 90.7095L229.102 90.5149C229.164 89.896 229.151 89.4415 228.994 88.8359L228.719 88.6287L228.566 88.9855L228.745 89.0153C228.715 89.0468 228.685 89.0781 228.655 89.1103C228.393 89.3951 228.272 89.5412 228.219 89.9265L228.64 90.7095Z" fill="#867C7D" fill-opacity="0.0156863"/>
<path d="M152.343 2.77901C160.455 3.86956 166.816 5.53411 174.367 8.82593C176.714 9.79607 179.536 10.5051 181.691 11.8005C183.103 12.6489 184.306 12.6035 185.213 13.0921C184.678 14.0542 184.493 14.0039 184.708 15.0336C182.122 13.7279 176.729 10.6963 174.138 9.90882C171.233 9.36802 169.578 8.33767 166.991 7.60494C162.484 6.32866 157.613 4.93751 153.055 3.93383C152.533 3.50679 152.498 3.43724 152.343 2.77901Z" fill="#7F605D"/>
<path d="M191.8 22.4583L191.99 22.5477C192.834 22.9471 194.515 24.0999 195.117 24.2365C195.076 23.7709 194.467 23.2425 194.116 22.9187L195.585 22.8461C202.155 28.9638 208.077 33.5513 213.231 41.2929C211.543 40.8099 210.99 38.4955 210.133 38.3024C210.43 40.7854 211.788 40.3909 212.226 41.8345C211.822 41.7176 211.414 41.4551 211.163 41.1266C208.203 37.2533 204.986 33.4979 201.555 30.0242C198.788 27.2219 194.617 25.4973 191.31 23.3143L191.8 22.4583Z" fill="#7F605D"/>
<path d="M42.5264 38.9935C43.6238 37.2938 53.0436 29.3798 55.0865 28.1058L55.5659 29.0877C51.4186 33.1939 47.0052 36.5314 42.7399 40.9172C40.9901 42.7419 36.7466 47.0056 35.4328 48.828C35.1567 48.5593 35.112 48.5329 34.805 48.3311C34.3041 48.666 34.2023 48.7162 33.6231 48.8991L33.4851 48.9412C34.7752 47.6984 35.9844 45.8592 37.2984 44.4995C39.1489 42.5843 40.8305 41.0822 42.5264 38.9935Z" fill="#9B8483"/>
<path d="M5.9446 174.594C4.95406 175.214 4.17128 175.404 3.05514 174.974C2.14863 174.621 1.43064 173.906 1.07449 173.001C-0.0636806 170.179 2.08186 168.787 4.34619 167.903C6.11553 168.605 8.80248 169.846 8.06356 172.214L7.53472 171.895C6.89245 172.217 5.39002 173.971 5.9446 174.594Z" fill="#7F605D" fill-opacity="0.756863"/>
<path d="M15.1674 48.3162C15.3925 48.3092 15.6283 48.3155 15.8437 48.389C16.6151 48.6515 17.3596 49.3044 17.6883 50.0515C18.0469 50.8662 17.9978 51.9202 17.6558 52.7328C17.2406 53.7198 16.4116 54.104 15.4799 54.4951C15.0076 54.3966 14.4938 54.3035 14.05 54.1117C13.2634 53.7715 12.5567 53.0232 12.2815 52.211C12.0388 51.4948 12.1354 50.7453 12.4905 50.0832C13.0704 49.0023 14.0549 48.6525 15.1674 48.3162Z" fill="#7F605D" fill-opacity="0.815686"/>
<path d="M200.615 21.7404C205.213 25.0926 209.586 28.7421 213.708 32.6659L213.836 33.5403C213.372 33.8181 213.287 33.6787 212.635 33.5628C208.442 29.3331 205.045 26.9964 200.709 23.1489C201.006 22.5194 200.87 22.6054 200.615 21.7404Z" fill="#7F605D"/>
<path d="M181.874 16.2046C186.002 17.8389 188.415 20.1378 191.8 22.4583L191.31 23.3143C188.653 22.1445 182.784 18.421 180.076 16.7779C180.603 16.4511 181.263 16.3445 181.874 16.2046Z" fill="#9B8483"/>
<path d="M227.586 78.146C227.625 77.1375 227.55 76.2072 228.161 75.4093C229.034 79.3079 230.612 86.3372 230.797 90.3091L230.235 90.0998C230.171 89.6672 230.169 89.6404 230.203 89.2042L229.932 89.1052C229.875 89.625 229.945 89.892 229.639 90.1962L229.524 90.2107C228.972 86.0551 228.123 82.1847 227.586 78.146Z" fill="#9E8E8B"/>
<path d="M217.231 38.397L217.634 37.5597L218.111 37.4341C221.336 41.1924 223.823 45.0468 226.816 48.7466L225.594 49.0845C222.72 45.1552 220.244 42.1228 217.231 38.397Z" fill="#947171"/>
<path d="M227.787 50.5649L227.863 50.7529C229.234 54.0282 232.655 57.6352 233.053 61.4673L232.902 61.8364C232.221 61.3397 227.444 52.5022 226.999 51.353C227.303 50.7254 227.116 50.9422 227.787 50.5649Z" fill="#9B8483"/>
<path d="M61.7132 23.0013C61.8409 23.3877 61.922 23.3905 61.7979 23.6662L61.9306 24.125C62.6033 23.9958 63.0146 23.2217 63.8708 23.1921L63.9075 23.4442C62.3042 24.5141 56.7831 28.687 55.566 29.0877L55.0865 28.1058C56.1797 26.8125 60.0318 24.3338 61.7132 23.0013Z" fill="#9B8483"/>
<path d="M192.157 13.7885C192.752 14.0798 193.365 14.4439 194.007 14.524L193.051 14.7007L192.866 15.0103C193.22 15.68 193.982 15.8957 194.681 16.1139C194.793 16.1487 194.905 16.1826 195.017 16.2155C195.261 15.9965 195.274 16.0157 195.391 15.7148C195.891 16.5115 195.806 17.4311 195.798 18.3857C194.272 17.7953 193.503 18.4169 191.89 17.6356C191.131 16.9555 190.977 15.6891 190.892 14.7154L192.157 13.7885Z" fill="#7F605D" fill-opacity="0.768627"/>
<path d="M195.371 30.0878C192.897 28.4635 189.664 27.9713 187.52 25.9671L187.521 25.6222C189.358 24.6293 194.461 28.1729 196.237 29.2567L195.371 30.0878Z" fill="#944C4D"/>
<path d="M218.945 147.95L219.756 149.235C218.353 151.367 217.061 154.12 215.816 155.925L215.058 157.246L214.232 156.688C214.328 156.331 215.103 154.695 215.301 154.26C216.495 152.363 217.898 149.916 218.945 147.95Z" fill="#9E8E8B"/>
<path d="M193.363 20.3407C193.331 20.0307 193.106 19.7148 192.983 19.3942L193.403 19.0456C194.328 18.9968 195.065 18.8499 195.969 18.6853C197.311 19.5382 199.42 20.7965 200.615 21.7404C200.87 22.6054 201.007 22.5194 200.71 23.1489C197.967 21.7476 196.273 19.9202 193.363 20.3407Z" fill="#7F605D" fill-opacity="0.984314"/>
<path d="M237.388 96.8642C237.626 96.8872 237.863 96.918 238.099 96.9617C238.642 97.0622 239.185 97.2472 239.479 97.7575C239.738 98.2062 239.768 98.6156 239.602 99.1014C239.381 99.7516 238.836 100.123 238.259 100.423C238.003 100.435 237.746 100.445 237.488 100.43C236.858 100.393 236.443 100.16 236.034 99.6911C235.891 99.3499 235.781 99.0454 235.857 98.6718C236.047 97.7651 236.664 97.3417 237.388 96.8642Z" fill="#7F605D" fill-opacity="0.984314"/>
<path d="M174.421 12.8589C176.723 14.0406 179.411 15.5158 181.874 16.2046C181.263 16.3445 180.603 16.4511 180.076 16.7779C178.408 16.2776 173.903 14.2014 172.195 13.3759L174.421 12.8589Z" fill="#867C7D"/>
<path d="M239.749 84.4284C240.445 84.5544 240.99 84.7971 241.418 85.3706C241.69 85.7347 241.769 86.1607 241.703 86.6056C241.575 87.4659 241.001 87.8153 240.345 88.2904C240.309 88.2974 240.27 88.3077 240.232 88.3111C239.604 88.3698 239.24 88.1427 238.785 87.7416C238.591 87.3731 238.474 87.0767 238.497 86.6593C238.557 85.5801 238.989 85.1279 239.749 84.4284Z" fill="#7F605D" fill-opacity="0.972549"/>
<path d="M212.365 42.5419C213.659 43.8361 218.23 52.1978 218.89 54.0506C216.391 50.4538 214.059 46.4274 211.4 42.9954C211.932 42.9486 211.946 42.9094 212.365 42.5419Z" fill="#947171" fill-opacity="0.0431373"/>
<path d="M9.82406 62.903C10.142 63.0356 10.4414 63.1755 10.6963 63.411C11.1065 63.7895 11.4427 64.2419 11.4385 64.8263C11.4315 65.8258 10.6551 66.4755 9.96934 67.0801C9.49429 66.9846 9.13004 66.7872 8.82867 66.4004C8.51706 66.0004 8.43199 65.546 8.4811 65.0545C8.58631 64.0011 9.04441 63.5415 9.82406 62.903Z" fill="#806464" fill-opacity="0.988235"/>
<path d="M189.186 19.1503L189.405 18.2886C190.779 17.9517 191.529 20.6817 193.159 20.8513C194.15 21.5688 194.713 21.9601 195.585 22.8461L194.116 22.9187C192.244 22.0674 190.568 20.6589 189.186 19.1503Z" fill="#806464" fill-opacity="0.972549"/>
<path d="M168.25 10.4108C170.3 11.2619 172.325 12.1249 174.421 12.8589L172.195 13.3759C170.236 12.6161 168.6 11.736 166.517 11.2231L168.25 10.4108Z" fill="#947171"/>
<path d="M185.213 13.0921C185.877 13.6008 186.121 13.7669 186.861 14.1518C187.975 14.7816 188.513 15.0366 189.423 15.9743L189.267 17.2311L188.729 16.8189C188.273 16.2983 185.512 15.3502 184.708 15.0336C184.493 14.0039 184.678 14.0542 185.213 13.0921Z" fill="#7E5D5D"/>
<path d="M189.424 15.9743C189.868 15.4932 190.377 15.1202 190.892 14.7154C190.977 15.6891 191.131 16.9555 191.89 17.6356C193.503 18.4169 194.272 17.7953 195.798 18.3857L195.89 18.5227C192.881 18.3513 192.593 19.5856 189.777 17.5753L189.331 17.7684L189.267 17.2311L189.424 15.9743Z" fill="#806464" fill-opacity="0.878431"/>
<path d="M213.708 32.6659C215.277 34.7231 216.282 35.637 218.111 37.4341L217.634 37.5597L217.231 38.397C215.711 36.7549 214.228 35.137 212.635 33.5628C213.287 33.6787 213.372 33.8181 213.836 33.5403L213.708 32.6659Z" fill="#806464"/>
<path d="M160.94 8.62015C163.41 9.26836 165.886 9.79339 168.25 10.4108L166.517 11.2231C165.884 10.9519 162.27 10.0379 161.577 9.88091L160.94 8.62015Z" fill="#867C7D"/>
<path d="M188.729 16.8189L189.267 17.2311L189.331 17.7684L189.777 17.5753C192.593 19.5856 192.881 18.3513 195.89 18.5227L195.969 18.6853C195.065 18.8499 194.328 18.9968 193.403 19.0456L192.983 19.3942C193.106 19.7149 193.331 20.0307 193.363 20.3407L193.159 20.8513C191.529 20.6817 190.779 17.9518 189.405 18.2886L189.186 19.1504C188.814 18.1237 188.716 17.897 188.729 16.8189Z" fill="#806464" fill-opacity="0.898039"/>
<path d="M16.4146 158.999C16.5633 160.318 17.3783 161.613 18.0622 162.754C17.5313 162.803 16.9572 162.845 16.4326 162.918L15.0393 159.684C15.8573 159.838 15.8658 159.561 16.4146 158.999Z" fill="#9B8483"/>
<path d="M16.3928 185.175C17.0844 185.174 17.9087 185.256 18.4324 185.742C18.6409 186.44 18.4948 186.579 18.231 187.238C18.0442 187.271 17.8501 187.303 17.6596 187.292C17.1418 187.263 16.8237 186.964 16.4759 186.616C16.2715 185.996 16.2312 185.837 16.3928 185.175Z" fill="#D82E35"/>
<path d="M152.415 211.329C152.772 211.293 152.905 211.347 153.226 211.509L153.122 211.842C152.187 212.631 151.023 213.112 149.931 213.644L149.615 213.764L149.333 213.608C149.348 213.555 149.361 213.5 149.379 213.446C149.651 212.631 151.657 211.728 152.415 211.329Z" fill="#C40D1C"/>
<path d="M223.439 65.9637C222.737 63.881 221.587 61.0221 221.076 58.998C222.36 61.1398 222.922 62.7246 223.714 65.1022L223.439 65.9637Z" fill="#9B8483" fill-opacity="0.576471"/>
<path d="M5.94466 174.594C5.39008 173.971 6.89251 172.217 7.53478 171.895L8.06362 172.214C7.50691 173.272 7.07404 174.08 5.94466 174.594Z" fill="#7F605D" fill-opacity="0.811765"/>
<path d="M225.594 49.0845L226.816 48.7466C227.171 49.3495 227.533 49.9109 227.787 50.5649C227.116 50.9422 227.303 50.7254 226.999 51.353C226.697 50.527 226.113 49.8026 225.594 49.0845Z" fill="#9E8E8B"/>
<path d="M194.007 14.524C194.685 14.9542 194.917 15.0585 195.391 15.7148C195.274 16.0157 195.261 15.9965 195.017 16.2155C194.905 16.1826 194.793 16.1487 194.681 16.1139C193.981 15.8957 193.22 15.68 192.866 15.0103L193.051 14.7007L194.007 14.524Z" fill="#7F605D" fill-opacity="0.831373"/>
<path d="M61.8269 22.5749C62.7155 22.1538 65.8235 20.4781 66.5529 20.3852C65.6696 21.6195 63.5547 22.318 62.1124 22.665L61.8269 22.5749Z" fill="#9B8483" fill-opacity="0.180392"/>
<path d="M187.546 13.2687C186.94 12.9708 186.532 12.8229 186.112 12.2799L186.258 12.0728C187.422 12.3242 188.589 12.8371 189.426 13.7093C188.761 13.7888 188.183 13.5039 187.546 13.2687Z" fill="#944C4D"/>
<path d="M223.439 65.9637L223.714 65.1022C223.871 65.5214 224.495 67.2596 224.668 67.5455L224.327 68.3011C224.138 67.5325 223.761 66.6865 223.439 65.9637Z" fill="#9B8483" fill-opacity="0.384314"/>
</svg>
